<svg version="1.1" id="Layer_1" xmlns="http://www.w3.org/2000/svg"
	xmlns:xlink="http://www.w3.org/1999/xlink" x="0px" y="0px"
	width="100%" viewBox="0 0 1024 1024" xml:space="preserve">
<path fill="#33e82c" opacity="1.000000" stroke="none" 
	d="
M529.000000,882.310852 
	C477.591278,882.310364 426.682556,882.310364 375.689850,882.310364 
	C375.629089,878.835205 377.608459,878.175110 378.915527,877.113403 
	C390.684753,867.553345 402.992859,858.593018 414.201965,848.420044 
	C438.444183,826.418640 457.670319,801.006409 464.035034,767.876648 
	C466.458099,755.264038 466.915192,742.562500 466.029358,729.638733 
	C464.920990,713.468811 463.097534,697.505310 458.702759,681.910156 
	C447.920441,643.648315 426.601440,612.698669 394.134918,589.585571 
	C388.372711,585.483521 388.334839,585.559387 384.185608,591.125000 
	C365.331696,616.414612 341.881348,636.052002 312.100006,646.943481 
	C250.996368,669.289978 196.348801,657.676819 148.235428,614.219727 
	C143.131516,609.609741 139.187469,604.026855 135.281479,598.399902 
	C133.433502,595.737671 133.514603,593.923828 135.812881,591.493774 
	C166.031982,559.542480 202.259460,537.948669 245.130203,527.717346 
	C288.123993,517.456726 329.709534,523.137085 370.282990,539.112061 
	C374.460175,540.756714 376.077332,540.101562 377.655121,536.085388 
	C383.843811,520.332092 388.049988,504.205872 388.147217,487.352722 
	C387.230499,486.251495 386.194977,486.376953 385.209015,486.423950 
	C327.491791,489.175537 282.189575,465.843201 247.667984,420.447083 
	C229.587723,396.671417 218.455215,369.723145 213.990768,340.203583 
	C211.742859,325.340210 212.029327,310.330475 213.838257,295.384735 
	C214.192627,292.456940 215.160934,290.422363 218.839615,290.706848 
	C253.589813,293.394073 287.037262,300.941406 317.375610,318.742737 
	C362.676544,345.323517 396.828857,381.612946 413.796967,432.344574 
	C415.266998,436.739746 416.381256,441.253906 417.718140,445.912598 
	C422.394836,445.891052 426.156464,443.633484 430.050140,441.989685 
	C450.947174,433.167786 469.776489,421.060944 486.928223,406.233398 
	C490.243683,403.367218 490.544922,401.420013 487.776520,397.770538 
	C465.373138,368.236938 451.196442,335.104370 446.875702,298.251862 
	C441.640594,253.601273 450.218933,211.467438 472.144745,172.105820 
	C482.349213,153.786621 494.897095,137.277573 509.509521,122.267982 
	C512.132629,119.573570 513.783325,119.748604 516.376404,122.354645 
	C550.455078,156.603668 572.099121,197.399490 578.951172,245.235199 
	C586.933228,300.959229 572.982544,351.549591 539.779663,396.833862 
	C536.788635,400.913208 536.710815,403.261963 540.580872,406.595856 
	C559.713135,423.077667 580.865845,436.075226 604.650513,444.687866 
	C605.570740,445.021088 606.527710,445.253052 607.657715,445.588684 
	C610.337830,442.636383 610.439880,438.804321 611.454712,435.413269 
	C622.813904,397.456940 645.263855,367.064056 675.134949,341.717133 
	C701.663025,319.206970 731.964050,304.162231 765.797363,296.204681 
	C779.917236,292.883698 794.335327,291.634460 808.732117,290.248260 
	C811.990906,289.934509 812.036682,292.003998 812.366516,294.285645 
	C816.664612,324.014374 812.677917,352.721405 801.215149,380.336761 
	C785.145752,419.050110 759.425659,449.396851 722.019165,469.047302 
	C698.114746,481.604797 672.505371,487.239929 645.466431,486.379669 
	C637.944275,486.140350 637.722229,486.370819 638.408813,493.815247 
	C639.856201,509.507843 643.984253,524.522278 650.136108,539.036194 
	C651.790527,542.939514 653.935791,542.215332 656.825195,541.000732 
	C672.375854,534.463928 688.476624,529.700867 705.068420,526.718018 
	C754.503601,517.830444 800.687622,527.008423 843.943970,552.051025 
	C862.387146,562.728455 878.740479,576.034607 893.502380,591.387451 
	C896.454285,594.457520 896.869202,596.323425 893.318054,599.305603 
	C880.462219,610.101440 869.410217,622.895325 855.163025,632.202026 
	C795.792786,670.984558 716.036682,664.068054 664.467896,615.351929 
	C656.703552,608.017090 649.341492,600.293274 643.069214,591.626587 
	C640.914795,588.649719 639.340637,587.945129 635.941589,590.379028 
	C599.661804,616.357178 577.959167,651.662964 568.451599,694.885254 
	C564.786987,711.544922 563.235168,728.552673 563.608337,745.454529 
	C564.299866,776.773499 575.462341,804.281494 595.894592,828.400269 
	C611.918274,847.315125 631.633484,861.768738 650.547058,877.271973 
	C651.947205,878.419678 653.665283,879.255066 654.817505,882.311340 
	C612.741211,882.311340 571.120605,882.311340 529.000000,882.310852 
M549.515137,849.562988 
	C555.852539,848.680298 562.349548,850.432617 568.723450,848.990051 
	C568.520508,846.541931 566.950500,845.618408 565.961121,844.351501 
	C551.727173,826.123535 541.568787,805.867615 535.664856,783.502869 
	C527.886414,754.037415 529.526917,724.351685 534.865112,694.878235 
	C544.930664,639.304871 572.147949,594.208618 618.917419,561.672058 
	C622.112854,559.449036 622.209656,557.646790 620.729858,554.349792 
	C610.733643,532.078491 605.117920,508.749969 604.777039,484.278625 
	C604.728760,480.810852 603.440125,479.264008 600.210815,478.313171 
	C595.271301,476.858734 590.408936,475.077332 585.635315,473.135986 
	C561.034485,463.131378 538.718384,449.407776 518.823486,431.783539 
	C513.587280,427.144958 513.624084,427.214172 508.469055,431.643738 
	C504.050842,435.440216 499.658478,439.294434 494.989624,442.766754 
	C473.728241,458.579010 450.875793,471.398102 425.352173,479.036346 
	C422.537750,479.878571 421.273438,481.393585 421.307648,484.406067 
	C421.574860,507.918335 416.249115,530.291992 407.000275,551.763184 
	C405.325104,555.652039 406.012207,557.460693 409.469635,559.766663 
	C435.425995,577.078613 456.113342,599.396545 471.420410,626.578491 
	C491.794067,662.757385 499.471466,701.961121 499.420013,743.155701 
	C499.372498,781.184143 486.692657,814.493958 463.724823,844.312988 
	C462.804993,845.507141 461.010162,846.387939 461.678711,848.634460 
	C490.669281,849.274170 519.659058,848.421326 549.515137,849.562988 
M481.352386,241.767014 
	C478.999207,256.416168 477.850708,271.045258 478.990356,285.968384 
	C481.115204,313.792816 489.781769,339.298126 504.201752,362.987274 
	C506.849548,367.337097 509.343597,371.862030 513.705505,376.074829 
	C533.626282,348.571442 545.498352,318.538788 547.576233,285.016205 
	C550.196167,242.747574 538.172852,204.692688 513.030457,169.517151 
	C497.192413,191.728851 486.830750,215.203156 481.352386,241.767014 
M321.487915,361.037567 
	C300.857849,345.514313 278.000061,334.783539 252.817535,329.001129 
	C246.651367,327.585266 245.497208,328.479248 246.555313,334.706451 
	C253.457275,375.326630 272.966675,408.304779 306.832703,432.096649 
	C328.713959,447.468903 353.313110,454.623474 380.172607,453.732574 
	C384.095856,453.602417 385.397949,452.271027 383.987030,448.538879 
	C383.636017,447.610443 383.477386,446.611115 383.191223,445.656097 
	C372.643280,410.454742 350.678894,383.540802 321.487915,361.037567 
M655.533020,416.018707 
	C649.403259,427.397583 643.976990,439.031525 641.659729,452.608154 
	C676.443115,455.121704 706.138428,444.586639 731.444580,422.354584 
	C759.899536,397.356110 776.249939,365.742950 780.636902,326.776123 
	C725.756287,339.050507 684.401428,368.132233 655.533020,416.018707 
M190.828079,605.652283 
	C257.492279,647.944153 331.072388,612.839661 357.348236,569.707092 
	C322.333618,555.860107 286.725922,551.113892 249.958221,560.650146 
	C223.798981,567.434998 200.229950,579.389526 179.084824,596.763184 
	C182.893097,600.673645 186.669815,602.816711 190.828079,605.652283 
M813.024109,616.484436 
	C825.859924,611.651306 837.541138,604.955505 848.436768,595.266785 
	C821.679688,574.413757 792.416199,561.861511 759.734863,557.516602 
	C728.729370,553.394531 699.372192,560.125427 670.516418,571.371155 
	C695.110779,609.473694 754.764771,638.537048 813.024109,616.484436 
z"/>
</svg>